<svg id="Calque_1" data-name="Calque 1" xmlns="http://www.w3.org/2000/svg" viewBox="0 0 599.27 287.73"><defs><style>.cls-1{fill:#111;}.cls-2{fill:#fff;}</style></defs><title>logoMk2_#111111</title><path class="cls-1" d="M472,997.37c3.23-22.88,6.31-44.8,9.41-66.72,4.39-31,8.88-62,13.14-93,1.83-13.31-9.73-22.51-22.34-18-9.67,3.49-17.17,10.22-24,17.49-6,6.4-11.48,13.4-17,20.29a11.62,11.62,0,0,0-2.12,5.42Q419.85,927.45,410.76,992c-.23,1.62-.67,3.21-1.06,5.06H369.58c1.32-9.67,2.56-19,3.87-28.33q9.49-67.79,19-135.59a12.9,12.9,0,0,0-16-14.39c-7.54,1.8-12.19,6.66-13.67,14.25-1.11,5.7-1.8,11.48-2.72,17.46H350c.48-25.32,8.06-44.87,33.66-54.95,18.88-7.43,39.48.2,46.77,17.12,2.19,5.09,2.79,10.86,4.25,16.84.88-.95,1.95-2,2.92-3.14,10.1-11.8,20.5-23.26,34.28-31,10.07-5.66,20.7-8.32,32.17-5.86,16.34,3.51,28.91,17.93,31,35.2.25,2.11.46,4.23.82,7.44,4.1-4.93,7.54-9.09,11-13.22,8.9-10.58,19.31-19.31,31.8-25.35,17.63-8.52,36.85-5.85,49,6.72A39.18,39.18,0,0,1,638,820c.2,1,.35,2,.61,2.92.07.24.5.37,1.22.88,1.78-12.53,3.55-24.81,5.25-37.09,2.82-20.29,5.55-40.59,8.49-60.85.2-1.39,1.86-3.65,2.88-3.67,12.29-.26,24.58-.17,37.93-.17L669.77,896.81l1.07,1.08,79-49.13a29.33,29.33,0,0,0-2-2.42c-8.64-8.12-10.33-17.8-6.6-28.78,4.24-12.48,16.68-22.15,29.48-22.82,16-.83,27.76,11.13,26.76,27.13-.08,1.31-.2,2.61-.35,4.41,5.22-4.45,9.68-9.21,15-12.61,33.21-21.23,68.73-27.51,105.58-11.72,31.78,13.62,40.83,49.2,21.45,77.82-11.86,17.52-27.63,31.25-44.88,43-19.11,13-39.14,24.67-58.77,36.9a13.83,13.83,0,0,0-4.16,3.25H939c-1.15,8.21-2.19,15.71-3.25,23.2-.56,4-1.49,7.9-1.65,11.87-.17,4.16-1.93,5.12-5.89,5.11-48.5-.13-97-.06-145.49-.13-4.05,0-8.1-.81-12.16-.95-1.18,0-2.45.82-3.58,1.45-21.23,11.81-43.42,6.71-55.7-14.38-9.7-16.65-17.56-34.37-26.17-51.65-4.38-8.79-8.62-17.65-12.95-26.47-.77-1.58-1.68-3.09-2.52-4.64l-1.41.12-13.6,96.48c-2.13.11-4.08.27-6,.3-11.82.17-23.66.69-35.47.36C593.68,1003,578,987.2,579.77,966c1.22-14.25,3.64-28.41,5.64-42.59,4-28.37,8.08-56.72,12.08-85.08,1-6.76-.86-12.65-6.47-16.84a15.44,15.44,0,0,0-17.48-1.2A92.46,92.46,0,0,0,556.93,832c-5.82,5.19-10.6,11.52-16.24,16.94-6.87,6.6-9.46,14.61-10.7,23.86-5.36,39.94-11.26,79.81-16.78,119.73-.53,3.81-1.86,5-5.63,4.89C496,997.23,484.33,997.37,472,997.37ZM824.24,827.15c10.95,3.87,16.16,10.37,17.32,20.09,1.61,13.38-9.32,28.61-23.55,32.8-19.62,5.78-35.56-8.24-32.18-28.36.5-3,1.3-5.9,2-9.13-5,3.61-9.43,7.13-14.17,10.17q-30.91,19.82-62,39.35c-3.06,1.92-3.56,3.54-1.85,6.79,12.68,24.18,25.17,48.45,37.72,72.7,5.54,10.69,15.78,13.24,25.92,6.72,6.93-4.45,7.89-11.45,8.87-18.63,1.13-8.24,1.83-8.64,11-6.54l-3.14,23.19c2-1.49,3.48-2.52,4.88-3.62,12.84-10.08,25.74-20.09,38.5-30.28,17.73-14.16,35-28.86,49.24-46.67,7.66-9.55,14.31-19.68,17.56-31.68,6-22.07-6.89-42.3-29.32-46a69.4,69.4,0,0,0-32.6,2.44C834,821.94,829.82,824.5,824.24,827.15Z" transform="translate(-350.01 -721.96)"/><path class="cls-2" d="M824.24,827.15c5.58-2.65,9.71-5.2,14.21-6.64a69.4,69.4,0,0,1,32.6-2.44c22.43,3.67,35.28,23.91,29.32,46-3.25,12-9.9,22.13-17.56,31.68-14.28,17.8-31.51,32.51-49.24,46.67-12.76,10.19-25.66,20.2-38.5,30.28-1.4,1.1-2.86,2.13-4.88,3.62l3.14-23.19c-9.13-2.11-9.83-1.71-11,6.54-1,7.18-1.94,14.18-8.87,18.63-10.15,6.52-20.39,4-25.92-6.72-12.55-24.25-25-48.52-37.72-72.7-1.71-3.26-1.21-4.87,1.85-6.79q31.1-19.51,62-39.35c4.74-3,9.17-6.56,14.17-10.17-.73,3.24-1.53,6.16-2,9.13C782.46,871.79,798.4,885.81,818,880c14.22-4.19,25.15-19.41,23.55-32.8C840.4,837.52,835.19,831,824.24,827.15Z" transform="translate(-350.01 -721.96)"/></svg>